# xmcd CD database file
#
# Track frame offsets:
#	150
#	14353
#	25372
#	41354
#	61922
#	73366
#	89308
#	109984
#	124321
#	141315
#	154237
#	166050
#
# Disc length: 2411 seconds
#
# Revision: 3
# Processed by: cddbd v1.5.2PL0 Copyright (c) Steve Scherf et al.
# Submitted via: CDex 1.70beta2
#
DISCID=a709690c
DTITLE=Various Artist - 星空ジャズ
DYEAR=2014
DGENRE=Jazz
TTITLE0=It’s Only A Papermoon
TTITLE1=Destination Moon
TTITLE2=Blue Moon
TTITLE3=Moon Song
TTITLE4=No Moon At All
TTITLE5=I Wished On The Moon
TTITLE6=Stars Fell On Alabama
TTITLE7=Dream A Little Dream Of Me
TTITLE8=Moonlight In Vermont
TTITLE9=Stairway To The Stars
TTITLE10=Polka Dots And Moonbeams
TTITLE11=Stardust
EXTD=YEAR: 2014
EXTT0=
EXTT1=
EXTT2=
EXTT3=
EXTT4=
EXTT5=
EXTT6=
EXTT7=
EXTT8=
EXTT9=
EXTT10=
EXTT11=
PLAYORDER=
